<svg xmlns="http://www.w3.org/2000/svg" width="512" height="512" viewBox="0 0 512 512">
  <defs>
    <linearGradient id="g" x1="0" x2="1">
      <stop offset="0" stop-color="#6ee7ff"/>
      <stop offset="1" stop-color="#8b5cf6"/>
    </linearGradient>
  </defs>
  <rect width="512" height="512" rx="96" fill="url(#g)"/>
  <g fill="#0b0f18" transform="translate(135,110) scale(1.1)">
    <path d="M160 104h-99a8 8 0 0 1 0-16h86c-9-28-35-44-73-44H48a8 8 0 0 0 0 16h26c28 0 48 12 56 28H48a8 8 0 0 0 0 16h90c-5 28-27 44-60 44H77l73 84h28l-57-64c49-3 82-29 89-64h50z"/>
  </g>
</svg>