<svg xmlns="http://www.w3.org/2000/svg" viewBox="0 0 64 64"><defs><linearGradient id="g" x1="0" y1="0" x2="1" y2="1"><stop offset="0" stop-color="#6a5cff"/><stop offset=".5" stop-color="#9a52ff"/><stop offset="1" stop-color="#5ad6ff"/></linearGradient></defs><rect rx="14" width="64" height="64" fill="#0f1222"/><path d="M18 44c0-8 6-14 14-14h6v-6H32c-11 0-20 9-20 20v2h6z" fill="url(#g)"/><path d="M46 20H34a2 2 0 0 0 0 4h6l-18 18a2 2 0 1 0 3 3l18-18v6a2 2 0 0 0 4 0V22a2 2 0 0 0-2-2z" fill="url(#g)"/></svg>