
<svg xmlns="http://www.w3.org/2000/svg" width="1200" height="630" viewBox="0 0 180 40">
  <defs>
    <linearGradient id="g" x1="0%" x2="100%">
      <stop offset="0%" stop-color="#7C4DFF"/>
      <stop offset="100%" stop-color="#22D3EE"/>
    </linearGradient>
  </defs>
  <rect x="0" y="0" width="40" height="40" rx="10" fill="url(#g)"/>
  <path d="M12 28h10c3.5 0 6-2.4 6-5.5 0-2.3-1.5-4.2-3.7-4.9 1.5-.8 2.6-2.2 2.6-4 0-3-2.4-5.1-6-5.1H12v3.4h8.7c1.7 0 2.7.9 2.7 2.2s-1 2.2-2.7 2.2H12v3.4h8.9c1.9 0 3 1 3 2.5s-1.2 2.5-3 2.5H12V28z" fill="#0B1020"/>
  <text x="50" y="27" font-family="Inter,ui-sans-serif,system-ui,-apple-system,Segoe UI,Roboto" font-size="20" font-weight="700" fill="#E6EAF2">Rupi</text>
  <text x="96" y="27" font-family="Inter,ui-sans-serif,system-ui,-apple-system,Segoe UI,Roboto" font-size="20" font-weight="700" fill="url(#g)">Ramp</text>
</svg>
